<?xml version="1.0" encoding="UTF-8" standalone="no"?>
<!-- Created with Inkscape (http://www.inkscape.org/) -->

<svg
   xmlns:dc="http://purl.org/dc/elements/1.1/"
   xmlns:cc="http://creativecommons.org/ns#"
   xmlns:rdf="http://www.w3.org/1999/02/22-rdf-syntax-ns#"
   xmlns:svg="http://www.w3.org/2000/svg"
   xmlns="http://www.w3.org/2000/svg"
   xmlns:sodipodi="http://sodipodi.sourceforge.net/DTD/sodipodi-0.dtd"
   xmlns:inkscape="http://www.inkscape.org/namespaces/inkscape"
   width="210mm"
   height="297mm"
   viewBox="0 0 210 297"
   version="1.1"
   id="svg4980"
   inkscape:version="0.92.4 (5da689c313, 2019-01-14)"
   sodipodi:docname="drawing.svg">
  <defs
     id="defs4974" />
  <sodipodi:namedview
     id="base"
     pagecolor="#ffffff"
     bordercolor="#666666"
     borderopacity="1.0"
     inkscape:pageopacity="0.0"
     inkscape:pageshadow="2"
     inkscape:zoom="1.979899"
     inkscape:cx="412.40808"
     inkscape:cy="516.69594"
     inkscape:document-units="mm"
     inkscape:current-layer="layer1"
     showgrid="false"
     inkscape:window-width="2835"
     inkscape:window-height="1955"
     inkscape:window-x="-13"
     inkscape:window-y="-13"
     inkscape:window-maximized="1" />
  <metadata
     id="metadata4977">
    <rdf:RDF>
      <cc:Work
         rdf:about="">
        <dc:format>image/svg+xml</dc:format>
        <dc:type
           rdf:resource="http://purl.org/dc/dcmitype/StillImage" />
        <dc:title></dc:title>
      </cc:Work>
    </rdf:RDF>
  </metadata>
  <g
     inkscape:label="Layer 1"
     inkscape:groupmode="layer"
     id="layer1">
    <path
       style="display:inline;fill:#ffffff;fill-opacity:1;stroke-width:0.26458332"
       d="m 113.80401,79.653726 c 0,-0.138319 7.49436,-17.899902 8.13436,-19.278554 0.19726,-0.424802 1.81002,-4.227468 3.58399,-8.450324 1.77396,-4.222857 3.26525,-7.639129 3.314,-7.591695 0.19139,0.186379 11.75698,19.097881 11.70816,19.144964 -0.0312,0.02735 -5.49885,3.367861 -12.15611,7.422742 -6.65725,4.054882 -12.66216,7.713251 -13.34427,8.12973 -0.68208,0.41648 -1.24013,0.696907 -1.24013,0.623137 z"
       id="path5276"
       inkscape:connector-curvature="0"
       inkscape:export-filename="C:\Users\sam_b\pictures/logo.png"
       inkscape:export-xdpi="300"
       inkscape:export-ydpi="300" />
    <path
       style="display:inline;fill:#ffffff;fill-opacity:1;stroke-width:0.26458332"
       d="M 101.33402,62.372663 C 95.197671,52.696618 90.218839,44.7392 90.26993,44.68946 c 0.152336,-0.148086 30.67744,15.069647 30.67744,15.294044 0,0.186769 -8.266,19.796623 -8.39962,19.926658 -0.0312,0.03126 -5.07738,-7.861493 -11.21373,-17.537499 z"
       id="path5278"
       inkscape:connector-curvature="0"
       inkscape:export-filename="C:\Users\sam_b\pictures/logo.png"
       inkscape:export-xdpi="300"
       inkscape:export-ydpi="300" />
    <path
       style="display:inline;fill:#ffffff;fill-opacity:1;stroke-width:0.26458332"
       d="m 106.04134,51.332227 -15.203667,-7.563718 18.460167,-0.04923 c 10.15309,-0.02735 18.4885,-0.02344 18.52314,0.01172 0.0984,0.09612 -6.32587,15.197572 -6.45809,15.180223 -0.0648,-0.0078 -6.9595,-3.419163 -15.32155,-7.579229 z"
       id="path5280"
       inkscape:connector-curvature="0"
       inkscape:export-filename="C:\Users\sam_b\pictures/logo.png"
       inkscape:export-xdpi="300"
       inkscape:export-ydpi="300" />
    <path
       style="display:inline;fill:#ffffff;fill-opacity:1;stroke-width:0.26458332"
       d="m 106.17282,51.345981 -14.873766,-7.384373 8.028042,-0.118391 c 13.522974,-0.199273 28.133124,-0.189895 28.265344,0.01563 0.0664,0.104325 -0.99358,2.819744 -2.35511,6.034399 -3.61019,8.523938 -3.75175,8.838085 -3.98123,8.83621 -0.11522,-7.43e-4 -6.90271,-3.324685 -15.08328,-7.386092 z"
       id="path5282"
       inkscape:connector-curvature="0"
       inkscape:export-filename="C:\Users\sam_b\pictures/logo.png"
       inkscape:export-xdpi="300"
       inkscape:export-ydpi="300" />
    <path
       style="display:inline;fill:#ffffff;fill-opacity:1;stroke-width:0.26458332"
       d="M 75.405266,68.460983 C 68.094881,63.948244 62.054857,60.195905 61.983025,60.122486 61.845141,59.981823 85.056619,44.98325 85.198603,45.121413 c 0.08476,0.08244 3.603985,31.441675 3.535981,31.507826 -0.01953,0.01954 -6.018932,-3.655555 -13.329318,-8.168256 z"
       id="path5284"
       inkscape:connector-curvature="0"
       inkscape:export-filename="C:\Users\sam_b\pictures/logo.png"
       inkscape:export-xdpi="300"
       inkscape:export-ydpi="300" />
    <path
       style="display:inline;fill:#ffffff;fill-opacity:1;stroke-width:0.26458332"
       d="m 89.589459,75.242107 c -0.003,-0.105106 -0.75367,-6.882206 -1.667019,-15.059995 -0.91331,-8.177868 -1.647098,-14.880494 -1.630615,-14.894717 0.05547,-0.04845 10.149217,17.162281 10.209721,17.408519 0.03125,0.134021 -1.507301,3.055003 -3.422861,6.490694 -1.915561,3.435692 -3.48571,6.160684 -3.489226,6.055499 z"
       id="path5286"
       inkscape:connector-curvature="0"
       inkscape:export-filename="C:\Users\sam_b\pictures/logo.png"
       inkscape:export-xdpi="300"
       inkscape:export-ydpi="300" />
    <path
       style="display:inline;fill:#ffffff;fill-opacity:1;stroke-width:0.26458332"
       d="m 62.622248,58.212401 c 0.0078,-0.08479 1.23462,-1.922901 2.728368,-4.084382 l 2.715829,-3.929965 7.328431,-2.487584 c 4.030642,-1.36822 7.357141,-2.459686 7.392217,-2.425537 0.04961,0.04845 -18.774139,12.27026 -19.910406,12.927468 -0.146867,0.08479 -0.261314,0.08479 -0.254674,0 z"
       id="path5288"
       inkscape:connector-curvature="0"
       inkscape:export-filename="C:\Users\sam_b\pictures/logo.png"
       inkscape:export-xdpi="300"
       inkscape:export-ydpi="300" />
    <path
       style="display:inline;fill:#ffffff;fill-opacity:1;stroke-width:0.26458332"
       d="m 60.100353,81.568031 c 0.06679,-0.929274 0.312874,-5.947501 0.547197,-11.15156 0.234362,-5.204098 0.453374,-9.492753 0.487083,-9.53038 0.03515,-0.03907 5.95292,3.568344 13.153819,8.013253 7.200899,4.444908 13.070073,8.103511 13.042692,8.130159 -0.05742,0.05588 -27.042129,6.228163 -27.228799,6.228163 -0.06797,0 -0.06875,-0.760322 -0.0024,-1.689635 z"
       id="path5290"
       inkscape:connector-curvature="0"
       inkscape:export-filename="C:\Users\sam_b\pictures/logo.png"
       inkscape:export-xdpi="300"
       inkscape:export-ydpi="300" />
    <path
       style="display:inline;fill:#ffffff;fill-opacity:1;stroke-width:0.26458332"
       d="m 54.871027,80.272291 c -2.128127,-1.309728 -3.844636,-2.484146 -3.814442,-2.609844 0.09179,-0.381743 8.817726,-15.089535 8.90319,-15.006348 0.09413,0.09182 -0.69215,18.005594 -0.842767,19.20158 -0.05664,0.451372 -0.164835,0.815142 -0.239831,0.808304 -0.075,-0.0039 -1.877867,-1.083925 -4.005994,-2.393692 z"
       id="path5292"
       inkscape:connector-curvature="0"
       inkscape:export-filename="C:\Users\sam_b\pictures/logo.png"
       inkscape:export-xdpi="300"
       inkscape:export-ydpi="300" />
    <path
       style="display:inline;fill:#ffffff;fill-opacity:1;stroke-width:0.26458332"
       d="m 76.499621,92.544817 c -1.255049,-0.723281 -5.174251,-2.94892 -8.709294,-4.945864 l -6.427425,-3.630861 13.359276,-3.055238 c 7.347649,-1.680413 13.375917,-3.035075 13.396228,-3.010381 0.07656,0.09299 -9.02166,15.873105 -9.175636,15.914288 -0.08867,0.02344 -1.188099,-0.548663 -2.443149,-1.271944 z"
       id="path5294"
       inkscape:connector-curvature="0"
       inkscape:export-filename="C:\Users\sam_b\pictures/logo.png"
       inkscape:export-xdpi="300"
       inkscape:export-ydpi="300" />
    <path
       style="display:inline;fill:#ffffff;fill-opacity:1;stroke-width:0.26458332"
       d="m 46.338676,104.47932 c -4.419995,-2.84537 -10.336194,-6.546723 -13.147136,-8.225183 -4.860869,-2.90254 -5.079178,-3.057777 -4.464602,-3.175114 0.35545,-0.06799 7.632005,-0.183643 16.170254,-0.2571 l 15.524081,-0.13363 -2.299016,6.53262 c -1.264463,3.592917 -2.601226,7.393007 -2.970542,8.444577 -0.369121,1.05161 -0.695197,1.92884 -0.724141,1.9494 -0.03125,0.0195 -3.668942,-2.29062 -8.088898,-5.136 z"
       id="path5296"
       inkscape:connector-curvature="0"
       inkscape:export-filename="C:\Users\sam_b\pictures/logo.png"
       inkscape:export-xdpi="300"
       inkscape:export-ydpi="300" />
    <path
       style="display:inline;fill:#ffffff;fill-opacity:1;stroke-width:0.26458332"
       d="m 71.150809,119.4616 c -2.656535,-1.64204 -7.315385,-4.39872 -10.353033,-6.12595 -3.037648,-1.72718 -5.502241,-3.1959 -5.476852,-3.26373 0.02734,-0.068 1.338522,-3.78262 2.918084,-8.25507 1.579524,-4.472419 2.926795,-8.131726 2.994018,-8.131726 0.159366,0 14.934699,28.580166 14.82865,28.683356 -0.04453,0.0434 -2.254409,-1.2648 -4.910867,-2.90688 z"
       id="path5298"
       inkscape:connector-curvature="0"
       inkscape:export-filename="C:\Users\sam_b\pictures/logo.png"
       inkscape:export-xdpi="300"
       inkscape:export-ydpi="300" />
    <path
       style="display:inline;fill:#ffffff;fill-opacity:1;stroke-width:0.26458332"
       d="m 34.359133,105.89877 c 1.801664,-2.9472 3.346612,-5.42908 3.433248,-5.51528 0.08671,-0.086 3.582775,2.0427 7.769267,4.73092 5.818279,3.73609 7.496235,4.89894 7.121216,4.93516 -0.450991,0.0438 -21.151273,1.20873 -21.462467,1.20806 -0.07539,-1.5e-4 1.337037,-2.41166 3.138736,-5.35886 z"
       id="path5300"
       inkscape:connector-curvature="0"
       inkscape:export-filename="C:\Users\sam_b\pictures/logo.png"
       inkscape:export-xdpi="300"
       inkscape:export-ydpi="300" />
    <path
       style="display:inline;fill:#ffffff;fill-opacity:1;stroke-width:0.26458332"
       d="m 31.058999,123.94875 c -3.9e-4,-0.76724 -0.09374,-3.68666 -0.20741,-6.48753 -0.113275,-2.80087 -0.1746,-5.12365 -0.13554,-5.16171 0.110541,-0.10745 20.786137,-1.26143 21.435516,-1.19641 0.498645,0.05 -0.124212,0.51381 -4.652678,3.46566 -2.875587,1.87433 -7.75087,5.06554 -10.833945,7.09148 l -5.605552,3.68349 z"
       id="path5302"
       inkscape:connector-curvature="0"
       inkscape:export-filename="C:\Users\sam_b\pictures/logo.png"
       inkscape:export-xdpi="300"
       inkscape:export-ydpi="300" />
    <path
       style="display:inline;fill:#ffffff;fill-opacity:1;stroke-width:0.26458332"
       d="m 44.453583,129.8771 c -6.766353,-2.06439 -12.383623,-3.77918 -12.482797,-3.81068 -0.09921,-0.0313 4.85653,-3.36391 11.01272,-7.40539 8.960492,-5.88248 11.220565,-7.28626 11.330988,-7.03799 0.136321,0.30673 2.947419,21.04372 2.940974,21.69608 -0.0016,0.18599 -0.114838,0.33212 -0.251158,0.3247 -0.136321,-0.008 -5.78414,-1.70234 -12.550532,-3.76668 z"
       id="path5304"
       inkscape:connector-curvature="0"
       inkscape:export-filename="C:\Users\sam_b\pictures/logo.png"
       inkscape:export-xdpi="300"
       inkscape:export-ydpi="300" />
    <path
       style="display:inline;fill:#ffffff;fill-opacity:1;stroke-width:0.26458332"
       d="m 58.230298,132.67547 c -0.09726,-0.56015 -2.909881,-21.32727 -2.890273,-21.34231 0.10976,-0.084 10.932923,6.28322 10.905698,6.41599 -0.03906,0.18169 -7.79239,14.79085 -7.923555,14.92632 -0.04297,0.0442 -0.08398,0.0442 -0.09179,0 z"
       id="path5306"
       inkscape:connector-curvature="0"
       inkscape:export-filename="C:\Users\sam_b\pictures/logo.png"
       inkscape:export-xdpi="300"
       inkscape:export-ydpi="300" />
    <path
       style="display:inline;fill:#ffffff;fill-opacity:1;stroke-width:0.26458332"
       d="m 41.593503,134.01489 -6.052047,-0.0274 -1.953414,-3.49516 c -1.074395,-1.92235 -1.937395,-3.51083 -1.917747,-3.52993 0.03515,-0.0352 23.282915,7.01958 23.358379,7.0889 0.02344,0.0195 -1.629169,0.0273 -3.670894,0.0156 -2.041765,-0.0117 -6.435707,-0.0352 -9.764277,-0.0508 z"
       id="path5310"
       inkscape:connector-curvature="0"
       inkscape:export-filename="C:\Users\sam_b\pictures/logo.png"
       inkscape:export-xdpi="300"
       inkscape:export-ydpi="300" />
    <path
       style="display:inline;fill:#ffffff;fill-opacity:1;stroke-width:0.26458332"
       d="m 41.194345,144.77967 -3.67316,-6.49054 6.682138,-0.0273 c 3.675153,-0.0156 9.679437,-0.0156 13.342871,0 l 6.660773,0.0273 -9.636158,6.493 c -5.299831,3.5712 -9.651197,6.49191 -9.669672,6.49058 -0.01953,-10e-4 -1.68655,-2.92321 -3.706792,-6.49304 z"
       id="path5312"
       inkscape:connector-curvature="0"
       inkscape:export-filename="C:\Users\sam_b\pictures/logo.png"
       inkscape:export-xdpi="300"
       inkscape:export-ydpi="300" />
    <path
       style="display:inline;fill:#ffffff;fill-opacity:1;stroke-width:0.26458332"
       d="m 60.419984,152.5445 c -11.010341,-0.79205 -14.183919,-1.04822 -14.088339,-1.13719 0.225769,-0.2106 18.627039,-12.58714 18.713792,-12.58714 0.08242,0 10.032699,14.59159 10.032699,14.71248 0,0.0746 1.83451,0.1981 -14.658152,-0.98815 z"
       id="path5314"
       inkscape:connector-curvature="0"
       inkscape:export-filename="C:\Users\sam_b\pictures/logo.png"
       inkscape:export-xdpi="300"
       inkscape:export-ydpi="300" />
    <path
       style="display:inline;fill:#ffffff;fill-opacity:1;stroke-width:0.26458332"
       d="m 75.646933,152.75275 c -0.242174,-0.36142 -2.546815,-3.75796 -5.12191,-7.54816 -2.575134,-3.79024 -4.662443,-6.91038 -4.638499,-6.93375 0.02344,-0.0234 6.48836,-0.0664 14.365355,-0.0957 l 14.321764,-0.0531 -0.248034,0.23912 c -0.212488,0.20469 -17.615374,14.57371 -18.073552,14.92271 -0.145696,0.11097 -0.217567,0.0481 -0.605085,-0.53104 z"
       id="path5316"
       inkscape:connector-curvature="0"
       inkscape:export-filename="C:\Users\sam_b\pictures/logo.png"
       inkscape:export-xdpi="300"
       inkscape:export-ydpi="300" />
    <path
       style="display:inline;fill:#ffffff;fill-opacity:1;stroke-width:0.26458332"
       d="m 90.555462,166.85863 c -2.701104,-2.48435 -6.928805,-6.37485 -9.394843,-8.64542 l -4.48382,-4.12834 9.394882,-7.76064 9.394843,-7.76069 0.02734,8.19025 c 0.01562,4.5047 0.01562,11.88747 0,16.40614 l -0.02734,8.21585 z"
       id="path5318"
       inkscape:connector-curvature="0"
       inkscape:export-filename="C:\Users\sam_b\pictures/logo.png"
       inkscape:export-xdpi="300"
       inkscape:export-ydpi="300" />
    <path
       style="display:inline;fill:#ffffff;fill-opacity:1;stroke-width:0.26458332"
       d="m 66.696402,163.36819 c 5.103239,-4.76605 9.311176,-8.65155 9.351056,-8.63455 0.09335,0.0399 18.774218,17.21909 18.774218,17.26512 0,0.0195 -8.415911,0.0352 -18.701956,0.0352 H 57.417764 Z"
       id="path5320"
       inkscape:connector-curvature="0"
       inkscape:export-filename="C:\Users\sam_b\pictures/logo.png"
       inkscape:export-xdpi="300"
       inkscape:export-ydpi="300" />
    <path
       style="display:inline;fill:#ffffff;fill-opacity:1;stroke-width:0.26458332"
       d="m 50.993385,162.0544 c -3.283689,-5.7923 -5.431542,-9.67925 -5.357132,-9.69476 0.06836,-0.0156 4.075405,0.2571 8.904635,0.60329 4.829231,0.34619 11.381025,0.81291 14.559603,1.03754 3.178539,0.22467 5.779218,0.43614 5.779218,0.47017 0,0.0352 -3.671012,3.48903 -8.157761,7.67789 -4.486789,4.18886 -8.627893,8.05678 -9.202471,8.5954 l -1.044709,0.97933 z"
       id="path5322"
       inkscape:connector-curvature="0"
       inkscape:export-filename="C:\Users\sam_b\pictures/logo.png"
       inkscape:export-xdpi="300"
       inkscape:export-ydpi="300" />
    <path
       style="display:inline;fill:#ffffff;fill-opacity:1;stroke-width:0.26458332"
       d="m 104.0659,154.95472 c 0.0898,-0.22546 16.30818,-27.40731 16.33697,-27.38059 0.0195,0.0156 0.0758,2.21896 0.12694,4.89277 0.0851,4.43381 0.0715,5.44654 -0.15546,11.51064 -0.1371,3.65704 -0.26092,6.65996 -0.27576,6.67324 -0.0156,0.0156 -3.50973,0.96503 -7.76599,2.11487 -4.25629,1.14984 -7.86477,2.13096 -8.0189,2.18031 -0.15429,0.0496 -0.26561,0.0531 -0.24803,0.008 z"
       id="path5324"
       inkscape:connector-curvature="0"
       inkscape:export-filename="C:\Users\sam_b\pictures/logo.png"
       inkscape:export-xdpi="300"
       inkscape:export-ydpi="300" />
    <path
       style="display:inline;fill:#ffffff;fill-opacity:1;stroke-width:0.26458332"
       d="m 112.18406,169.33148 c -4.5564,-7.23648 -8.29678,-13.20668 -8.31194,-13.26697 -0.0273,-0.10316 16.13093,-4.55025 16.21936,-4.46418 0.0195,0.0195 0.14843,4.68006 0.28436,10.35557 0.20546,8.58684 0.23397,11.17633 0.16991,15.42599 l -0.0773,5.10692 z"
       id="path5326"
       inkscape:connector-curvature="0"
       inkscape:export-filename="C:\Users\sam_b\pictures/logo.png"
       inkscape:export-xdpi="300"
       inkscape:export-ydpi="300" />
    <path
       style="display:inline;fill:#ffffff;fill-opacity:1;stroke-width:0.26458332"
       d="m 121.47062,170.82669 c -0.0641,-1.02899 -0.4661,-18.70543 -0.42618,-18.74431 0.0156,-0.0156 4.75419,4.37055 10.5313,9.74501 l 10.50381,9.77169 -0.93382,0.0234 c -0.5136,0.0117 -5.13839,0.0352 -10.2773,0.0485 l -9.34355,0.0273 z"
       id="path5328"
       inkscape:connector-curvature="0"
       inkscape:export-filename="C:\Users\sam_b\pictures/logo.png"
       inkscape:export-xdpi="300"
       inkscape:export-ydpi="300" />
    <path
       style="display:inline;fill:#ffffff;fill-opacity:1;stroke-width:0.26458332"
       d="m 132.02493,161.05382 -10.55298,-9.81972 3.31795,-0.64919 c 1.82486,-0.35713 6.16529,-1.209 9.64541,-1.89317 6.13518,-1.2063 6.32865,-1.23803 6.36876,-1.04411 0.0633,0.30633 1.84268,23.15901 1.806,23.19469 -0.0195,0.0156 -4.78095,-4.38759 -10.58514,-9.7885 z"
       id="path5330"
       inkscape:connector-curvature="0"
       inkscape:export-filename="C:\Users\sam_b\pictures/logo.png"
       inkscape:export-xdpi="300"
       inkscape:export-ydpi="300" />
    <path
       style="display:inline;fill:#ffffff;fill-opacity:1;stroke-width:0.26458332"
       d="m 121.01971,150.09243 c 0.0273,-1.53163 0.46072,-12.14448 0.4972,-12.18 0.0273,-0.0273 8.93901,-0.0594 19.80647,-0.0762 10.86746,-0.0156 19.70635,-0.002 19.64202,0.0312 -0.0644,0.0352 -4.58162,1.99738 -10.0384,4.36266 l -9.92138,4.30046 -9.8599,1.93728 c -5.42291,1.06556 -9.92102,1.93732 -9.99574,1.93732 -0.0883,0 -0.13398,-0.1098 -0.13047,-0.31376 z"
       id="path5332"
       inkscape:connector-curvature="0"
       inkscape:export-filename="C:\Users\sam_b\pictures/logo.png"
       inkscape:export-xdpi="300"
       inkscape:export-ydpi="300" />
    <path
       style="display:inline;fill:#ffffff;fill-opacity:1;stroke-width:0.26458332"
       d="m 143.50225,170.3922 c -0.0957,-0.29657 -1.84154,-23.12409 -1.77362,-23.18989 0.10625,-0.10315 20.3016,-8.8573 20.34202,-8.81796 0.0195,0.0156 -4.09165,7.17385 -9.13532,15.90026 -5.04367,8.72646 -9.21895,15.95313 -9.27837,16.05933 -0.0863,0.15434 -0.11718,0.16411 -0.15467,0.0481 z"
       id="path5334"
       inkscape:connector-curvature="0"
       inkscape:export-filename="C:\Users\sam_b\pictures/logo.png"
       inkscape:export-xdpi="300"
       inkscape:export-ydpi="300" />
    <path
       style="display:inline;fill:#ffffff;fill-opacity:1;stroke-width:0.26458332"
       d="m 144.56996,132.85814 c 5.12871,-8.02646 8.5213,-13.31429 8.58212,-13.37626 0.0559,-0.0571 5.75722,8.25312 9.77345,14.24524 l 0.17773,0.2657 h -9.62921 -9.62921 z"
       id="path5336"
       inkscape:connector-curvature="0"
       inkscape:export-filename="C:\Users\sam_b\pictures/logo.png"
       inkscape:export-xdpi="300"
       inkscape:export-ydpi="300" />
    <path
       style="display:inline;fill:#ffffff;fill-opacity:1;stroke-width:0.26458332"
       d="m 159.0032,126.38686 c -2.65188,-3.91499 -4.8172,-7.12516 -4.81188,-7.13367 0.0156,-0.0195 15.22569,0.53475 15.54306,0.56808 0.25077,0.0273 0.21093,0.12503 -2.77797,6.85571 -1.6678,3.75593 -3.05472,6.82875 -3.08202,6.82852 -0.0274,-2.8e-4 -2.2193,-3.20368 -4.87119,-7.11864 z"
       id="path5338"
       inkscape:connector-curvature="0"
       inkscape:export-filename="C:\Users\sam_b\pictures/logo.png"
       inkscape:export-xdpi="300"
       inkscape:export-ydpi="300" />
    <path
       style="display:inline;fill:#ffffff;fill-opacity:1;stroke-width:0.26458332"
       d="m 160.97478,118.64638 c -3.85936,-0.14183 -7.03478,-0.27742 -7.05646,-0.30086 -0.0312,-0.0352 9.5466,-15.07606 9.68307,-15.20883 0.0352,-0.0352 6.33232,15.60479 6.32782,15.72143 -0.003,0.10315 -1.07435,0.0781 -8.95443,-0.21178 z"
       id="path5340"
       inkscape:connector-curvature="0"
       inkscape:export-filename="C:\Users\sam_b\pictures/logo.png"
       inkscape:export-xdpi="300"
       inkscape:export-ydpi="300" />
    <path
       style="display:inline;fill:#ffffff;fill-opacity:1;stroke-width:0.26458332"
       d="m 143.2066,118.01047 c -4.68276,-0.17349 -8.52872,-0.33056 -8.54653,-0.34932 -0.0391,-0.041 27.66268,-14.35492 27.70936,-14.31772 0.0195,0.0156 -2.1245,3.39705 -4.76127,7.51706 l -4.79415,7.49093 -0.54665,-0.0117 c -0.30077,-0.004 -4.37801,-0.15473 -9.06076,-0.32822 z"
       id="path5342"
       inkscape:connector-curvature="0"
       inkscape:export-filename="C:\Users\sam_b\pictures/logo.png"
       inkscape:export-xdpi="300"
       inkscape:export-ydpi="300" />
    <path
       style="display:inline;fill:#ffffff;fill-opacity:1;stroke-width:0.26458332"
       d="m 140.92348,130.10646 c -1.17283,-1.87187 -3.2756,-5.2282 -4.67283,-7.45853 l -2.54042,-4.05512 0.7209,-0.0195 c 1.44782,-0.0426 17.78611,0.59872 17.75959,0.69699 -0.0312,0.11526 -9.06259,14.24122 -9.10521,14.24122 -0.0156,0 -0.98916,-1.53155 -2.16203,-3.40342 z"
       id="path5344"
       inkscape:connector-curvature="0"
       inkscape:export-filename="C:\Users\sam_b\pictures/logo.png"
       inkscape:export-xdpi="300"
       inkscape:export-ydpi="300" />
    <path
       style="display:inline;fill:#ffffff;fill-opacity:1;stroke-width:0.26458332"
       d="m 134.01108,116.95315 c 0,-0.0563 7.7656,-13.62308 7.84368,-13.70326 0.0637,-0.0656 16.68948,-0.60325 19.53785,-0.63173 0.45071,-0.004 -0.57736,0.53483 -26.76145,14.03948 -0.341,0.17583 -0.62008,0.30868 -0.62008,0.29539 z"
       id="path5346"
       inkscape:connector-curvature="0"
       inkscape:export-filename="C:\Users\sam_b\pictures/logo.png"
       inkscape:export-xdpi="300"
       inkscape:export-ydpi="300" />
    <path
       style="display:inline;fill:#ffffff;fill-opacity:1;stroke-width:0.26458332"
       d="m 129.50574,110.3774 c -1.84635,-3.69053 -3.34033,-6.72588 -3.31998,-6.74522 0.0441,-0.0418 14.58769,-0.45762 14.62276,-0.41808 0.0234,0.0273 -7.80754,13.7387 -7.8975,13.8263 -0.0273,0.0273 -1.55898,-2.97248 -3.40528,-6.663 z"
       id="path5348"
       inkscape:connector-curvature="0"
       inkscape:export-filename="C:\Users\sam_b\pictures/logo.png"
       inkscape:export-xdpi="300"
       inkscape:export-ydpi="300" />
    <path
       style="display:inline;fill:#ffffff;fill-opacity:1;stroke-width:0.26458332"
       d="m 127.36378,102.62183 c 4.50417,-2.49841 27.22462,-14.773513 27.26751,-14.731783 0.0352,0.03126 1.91912,3.152959 4.18935,6.933196 3.57508,5.953127 4.09997,6.876347 3.92103,6.896587 -0.11366,0.0117 -5.80976,0.17622 -12.65794,0.36338 -6.84827,0.18677 -14.67894,0.40468 -17.40157,0.48353 -5.763,0.16684 -5.51563,0.16449 -5.31838,0.0547 z"
       id="path5350"
       inkscape:connector-curvature="0"
       inkscape:export-filename="C:\Users\sam_b\pictures/logo.png"
       inkscape:export-xdpi="300"
       inkscape:export-ydpi="300" />
    <path
       style="display:inline;fill:#ffffff;fill-opacity:1;stroke-width:0.26458332"
       d="m 123.74245,86.862739 c -6.49355,-0.04298 -13.55977,-0.08987 -15.70274,-0.104716 l -3.89631,-0.02735 18.21335,-11.089981 c 10.01731,-6.099457 18.22542,-11.074235 18.24018,-11.055011 0.0156,0.01954 -0.96596,4.510044 -2.17941,9.979643 -1.21345,5.469559 -2.32811,10.498649 -2.47701,11.175745 -0.14883,0.677019 -0.29804,1.223807 -0.33124,1.215015 -0.0352,-0.0078 -5.37334,-0.05118 -11.86689,-0.09378 z"
       id="path5352"
       inkscape:connector-curvature="0"
       inkscape:export-filename="C:\Users\sam_b\pictures/logo.png"
       inkscape:export-xdpi="300"
       inkscape:export-ydpi="300" />
    <path
       style="display:inline;fill:#ffffff;fill-opacity:1;stroke-width:0.26458332"
       d="m 137.28512,83.879161 c 0,-0.239517 4.38,-19.932402 4.44793,-19.998318 0.16639,-0.161763 8.87826,-5.199097 8.92037,-5.158148 0.0391,0.03517 -13.19725,25.104538 -13.331,25.248718 -0.0195,0.02344 -0.0391,-0.01954 -0.0391,-0.09221 z"
       id="path5354"
       inkscape:connector-curvature="0"
       inkscape:export-filename="C:\Users\sam_b\pictures/logo.png"
       inkscape:export-xdpi="300"
       inkscape:export-ydpi="300" />
    <path
       style="display:inline;fill:none;stroke:#000000;stroke-width:0.26458332px;stroke-linecap:butt;stroke-linejoin:miter;stroke-opacity:1"
       d="m 88.597482,43.195151 40.094738,-0.06056 12.60019,20.468758 10.61587,-6.179243 -15.87422,29.930643 5.25835,-23.751439"
       id="path4802-7"
       inkscape:connector-curvature="0"
       inkscape:export-filename="C:\Users\sam_b\pictures/logo.png"
       inkscape:export-xdpi="300"
       inkscape:export-ydpi="300"
       sodipodi:nodetypes="cccccc" />
    <path
       style="display:inline;fill:none;stroke:#000000;stroke-width:0.26458332px;stroke-linecap:butt;stroke-linejoin:miter;stroke-opacity:1"
       d="m 102.59903,87.161843 38.69338,-23.558341 -5.25835,23.751479 z"
       id="path4804-4"
       inkscape:connector-curvature="0"
       inkscape:export-filename="C:\Users\sam_b\pictures/logo.png"
       inkscape:export-xdpi="300"
       inkscape:export-ydpi="300" />
    <path
       style="display:inline;fill:none;stroke:#000000;stroke-width:0.26458332px;stroke-linecap:butt;stroke-linejoin:miter;stroke-opacity:1"
       d="m 112.61962,81.079188 16.0726,-37.944365"
       id="path4806-8"
       inkscape:connector-curvature="0"
       inkscape:export-filename="C:\Users\sam_b\pictures/logo.png"
       inkscape:export-xdpi="300"
       inkscape:export-ydpi="300" />
    <path
       style="display:inline;fill:none;stroke:#000000;stroke-width:0.26458332px;stroke-linecap:butt;stroke-linejoin:miter;stroke-opacity:1"
       d="M 88.597482,43.195151 112.61962,81.079188"
       id="path4808-0"
       inkscape:connector-curvature="0"
       inkscape:export-filename="C:\Users\sam_b\pictures/logo.png"
       inkscape:export-xdpi="300"
       inkscape:export-ydpi="300"
       sodipodi:nodetypes="cc" />
    <path
       style="display:inline;fill:none;stroke:#000000;stroke-width:0.26458332px;stroke-linecap:butt;stroke-linejoin:miter;stroke-opacity:1"
       d="M 88.51069,77.120621 60.83004,60.031134 50.21417,77.989567 l 9.752011,5.87838 0.665432,-23.643675 7.143403,-10.427459 18.14433,-6.162285 11.274506,19.173213 -7.988669,14.31288 L 59.966181,83.867947 79.184593,94.596268 89.292874,76.915801 85.647485,44.112469 60.631613,60.224272"
       id="path4810-4"
       inkscape:connector-curvature="0"
       inkscape:export-filename="C:\Users\sam_b\pictures/logo.png"
       inkscape:export-xdpi="300"
       inkscape:export-ydpi="300"
       sodipodi:nodetypes="cccccccccccccc" />
    <path
       style="display:inline;fill:none;stroke:#000000;stroke-width:0.26458332px;stroke-linecap:butt;stroke-linejoin:miter;stroke-opacity:1"
       d="m 125.41818,103.18929 29.35127,-15.961961 8.94522,14.899871 6.94497,17.28255 -6.69694,15.06187 -20.88445,-0.0965 -10.21902,-16.31705 z"
       id="path4812-6"
       inkscape:connector-curvature="0"
       inkscape:export-filename="C:\Users\sam_b\pictures/logo.png"
       inkscape:export-xdpi="300"
       inkscape:export-ydpi="300"
       sodipodi:nodetypes="cccccccc" />
    <path
       style="display:inline;fill:none;stroke:#000000;stroke-width:0.26458332px;stroke-linecap:butt;stroke-linejoin:miter;stroke-opacity:1"
       d="m 163.71467,102.1272 -38.29649,1.06209"
       id="path4814-5"
       inkscape:connector-curvature="0"
       inkscape:export-filename="C:\Users\sam_b\pictures/logo.png"
       inkscape:export-xdpi="300"
       inkscape:export-ydpi="300" />
    <path
       style="display:inline;fill:none;stroke:#000000;stroke-width:0.26458332px;stroke-linecap:butt;stroke-linejoin:miter;stroke-opacity:1"
       d="M 132.85923,118.05802 163.71467,102.1272"
       id="path4816-5"
       inkscape:connector-curvature="0"
       inkscape:export-filename="C:\Users\sam_b\pictures/logo.png"
       inkscape:export-xdpi="300"
       inkscape:export-ydpi="300" />
    <path
       style="display:inline;fill:none;stroke:#000000;stroke-width:0.26458332px;stroke-linecap:butt;stroke-linejoin:miter;stroke-opacity:1"
       d="m 132.85923,118.05802 37.80041,1.35173"
       id="path4818-8"
       inkscape:connector-curvature="0"
       inkscape:export-filename="C:\Users\sam_b\pictures/logo.png"
       inkscape:export-xdpi="300"
       inkscape:export-ydpi="300" />
    <path
       style="display:inline;fill:none;stroke:#000000;stroke-width:0.26458332px;stroke-linecap:butt;stroke-linejoin:miter;stroke-opacity:1"
       d="M 143.07825,134.37507 163.71467,102.1272"
       id="path4822-8"
       inkscape:connector-curvature="0"
       inkscape:export-filename="C:\Users\sam_b\pictures/logo.png"
       inkscape:export-xdpi="300"
       inkscape:export-ydpi="300" />
    <path
       style="display:inline;fill:none;stroke:#000000;stroke-width:0.26458332px;stroke-linecap:butt;stroke-linejoin:miter;stroke-opacity:1"
       d="m 153.0988,118.44426 10.8639,16.02736"
       id="path4824-5"
       inkscape:connector-curvature="0"
       inkscape:export-filename="C:\Users\sam_b\pictures/logo.png"
       inkscape:export-xdpi="300"
       inkscape:export-ydpi="300"
       sodipodi:nodetypes="cc" />
    <path
       style="display:inline;fill:none;stroke:#000000;stroke-width:0.26458332px;stroke-linecap:butt;stroke-linejoin:miter;stroke-opacity:1"
       d="m 132.85923,118.05802 8.82999,-15.44807"
       id="path4826-7"
       inkscape:connector-curvature="0"
       inkscape:export-filename="C:\Users\sam_b\pictures/logo.png"
       inkscape:export-xdpi="300"
       inkscape:export-ydpi="300" />
    <path
       style="display:inline;fill:none;stroke:#000000;stroke-width:0.26458332px;stroke-linecap:butt;stroke-linejoin:miter;stroke-opacity:1"
       d="m 120.90397,184.00207 -17.80888,-28.28934 17.75928,-29.83409 0.19842,11.58605 42.16585,-0.0965 -20.04118,34.66164 -22.12467,0.0965 z"
       id="path4830-6"
       inkscape:connector-curvature="0"
       inkscape:export-filename="C:\Users\sam_b\pictures/logo.png"
       inkscape:export-xdpi="300"
       inkscape:export-ydpi="300"
       sodipodi:nodetypes="cccccccc" />
    <path
       style="display:inline;fill:none;stroke:#000000;stroke-width:0.26458332px;stroke-linecap:butt;stroke-linejoin:miter;stroke-opacity:1"
       d="m 103.09509,155.71273 17.46164,-4.73092 0.49603,-13.51712"
       id="path4832-7"
       inkscape:connector-curvature="0"
       inkscape:export-filename="C:\Users\sam_b\pictures/logo.png"
       inkscape:export-xdpi="300"
       inkscape:export-ydpi="300" />
    <path
       style="display:inline;fill:none;stroke:#000000;stroke-width:0.26458332px;stroke-linecap:butt;stroke-linejoin:miter;stroke-opacity:1"
       d="m 120.55673,150.98181 22.62069,21.04801"
       id="path4834-1"
       inkscape:connector-curvature="0"
       inkscape:export-filename="C:\Users\sam_b\pictures/logo.png"
       inkscape:export-xdpi="300"
       inkscape:export-ydpi="300" />
    <path
       style="display:inline;fill:none;stroke:#000000;stroke-width:0.26458332px;stroke-linecap:butt;stroke-linejoin:miter;stroke-opacity:1"
       d="m 121.05276,172.12641 -0.49603,-21.1446"
       id="path4836-7"
       inkscape:connector-curvature="0"
       inkscape:export-filename="C:\Users\sam_b\pictures/logo.png"
       inkscape:export-xdpi="300"
       inkscape:export-ydpi="300" />
    <path
       style="display:inline;fill:none;stroke:#000000;stroke-width:0.26458332px;stroke-linecap:butt;stroke-linejoin:miter;stroke-opacity:1"
       d="m 120.55673,150.98181 20.63646,-4.05516 22.02541,-9.55847"
       id="path4838-9"
       inkscape:connector-curvature="0"
       inkscape:export-filename="C:\Users\sam_b\pictures/logo.png"
       inkscape:export-xdpi="300"
       inkscape:export-ydpi="300" />
    <path
       style="display:inline;fill:none;stroke:#000000;stroke-width:0.26458332px;stroke-linecap:butt;stroke-linejoin:miter;stroke-opacity:1"
       d="m 141.19319,146.92665 1.98423,25.10317"
       id="path4840-1"
       inkscape:connector-curvature="0"
       inkscape:export-filename="C:\Users\sam_b\pictures/logo.png"
       inkscape:export-xdpi="300"
       inkscape:export-ydpi="300" />
    <path
       style="display:inline;fill:none;stroke:#000000;stroke-width:0.26458332px;stroke-linecap:butt;stroke-linejoin:miter;stroke-opacity:1"
       d="m 95.951732,138.52677 -3.9e-5,33.88925 H 56.365438 l -19.615227,-34.59338 59.226324,-0.0922 z"
       id="path4842-4"
       inkscape:connector-curvature="0"
       inkscape:export-filename="C:\Users\sam_b\pictures/logo.png"
       inkscape:export-xdpi="300"
       inkscape:export-ydpi="300"
       sodipodi:nodetypes="cccccc" />
    <path
       style="display:inline;fill:none;stroke:#000000;stroke-width:0.26458332px;stroke-linecap:butt;stroke-linejoin:miter;stroke-opacity:1"
       d="m 35.317093,134.46357 22.635759,0.008 9.05947,-17.04115 c -0.09687,-0.0637 6.794672,4.38759 10.432522,6.3709 l -16.317125,-31.618911 -35.022475,0.386042 11.60804,6.951678 -7.540252,12.261941 0.496067,14.38605 4.647994,8.29529"
       id="path4844-4"
       inkscape:connector-curvature="0"
       inkscape:export-filename="C:\Users\sam_b\pictures/logo.png"
       inkscape:export-xdpi="300"
       inkscape:export-ydpi="300"
       sodipodi:nodetypes="cccccccccc" />
    <path
       style="display:inline;fill:none;stroke:#000000;stroke-width:0.26458332px;stroke-linecap:butt;stroke-linejoin:miter;stroke-opacity:1"
       d="m 30.669099,126.16829 27.283753,8.30333"
       id="path4846-2"
       inkscape:connector-curvature="0"
       inkscape:export-filename="C:\Users\sam_b\pictures/logo.png"
       inkscape:export-xdpi="300"
       inkscape:export-ydpi="300" />
    <path
       style="display:inline;fill:none;stroke:#000000;stroke-width:0.26458332px;stroke-linecap:butt;stroke-linejoin:miter;stroke-opacity:1"
       d="m 30.669099,126.16829 24.034515,-15.7619 12.308708,7.0247"
       id="path4848-0"
       inkscape:connector-curvature="0"
       inkscape:export-filename="C:\Users\sam_b\pictures/logo.png"
       inkscape:export-xdpi="300"
       inkscape:export-ydpi="300"
       sodipodi:nodetypes="ccc" />
    <path
       style="display:inline;fill:none;stroke:#000000;stroke-width:0.26458332px;stroke-linecap:butt;stroke-linejoin:miter;stroke-opacity:1"
       d="m 54.703614,110.40639 3.249238,24.06523"
       id="path4850-3"
       inkscape:connector-curvature="0"
       inkscape:export-filename="C:\Users\sam_b\pictures/logo.png"
       inkscape:export-xdpi="300"
       inkscape:export-ydpi="300"
       sodipodi:nodetypes="cc" />
    <path
       style="display:inline;fill:none;stroke:#000000;stroke-width:0.26458332px;stroke-linecap:butt;stroke-linejoin:miter;stroke-opacity:1"
       d="m 30.173032,111.78227 24.530582,-1.37588"
       id="path4852-8"
       inkscape:connector-curvature="0"
       inkscape:export-filename="C:\Users\sam_b\pictures/logo.png"
       inkscape:export-xdpi="300"
       inkscape:export-ydpi="300"
       sodipodi:nodetypes="cc" />
    <path
       style="display:inline;fill:none;stroke:#000000;stroke-width:0.26458332px;stroke-linecap:butt;stroke-linejoin:miter;stroke-opacity:1"
       d="m 37.713284,99.520329 16.99033,10.886061 6.424105,-18.223897"
       id="path4858-0"
       inkscape:connector-curvature="0"
       inkscape:export-filename="C:\Users\sam_b\pictures/logo.png"
       inkscape:export-xdpi="300"
       inkscape:export-ydpi="300"
       sodipodi:nodetypes="ccc" />
    <path
       style="display:inline;fill:none;stroke:#000000;stroke-width:0.26458332px;stroke-linecap:butt;stroke-linejoin:miter;stroke-opacity:1"
       d="m 44.856647,151.85075 20.338821,-13.71021 10.814297,15.93089 z"
       id="path4860-7"
       inkscape:connector-curvature="0"
       inkscape:export-filename="C:\Users\sam_b\pictures/logo.png"
       inkscape:export-xdpi="300"
       inkscape:export-ydpi="300" />
    <path
       style="display:inline;fill:none;stroke:#000000;stroke-width:0.26458332px;stroke-linecap:butt;stroke-linejoin:miter;stroke-opacity:1"
       d="m 56.365438,172.41602 19.644327,-18.34459 19.941928,18.34459"
       id="path4862-2"
       inkscape:connector-curvature="0"
       inkscape:export-filename="C:\Users\sam_b\pictures/logo.png"
       inkscape:export-xdpi="300"
       inkscape:export-ydpi="300"
       sodipodi:nodetypes="ccc" />
    <path
       style="display:inline;fill:none;stroke:#000000;stroke-width:0.26458332px;stroke-linecap:butt;stroke-linejoin:miter;stroke-opacity:1"
       d="m 76.009765,154.07143 19.693934,-16.2688"
       id="path4864-2"
       inkscape:connector-curvature="0"
       inkscape:export-filename="C:\Users\sam_b\pictures/logo.png"
       inkscape:export-xdpi="300"
       inkscape:export-ydpi="300"
       sodipodi:nodetypes="cc" />
    <path
       style="display:inline;fill:none;stroke:#000000;stroke-width:0.26458332px;stroke-linecap:butt;stroke-linejoin:miter;stroke-opacity:1"
       d="M 122.14414,59.838035 88.597482,43.195151"
       id="path4866-6"
       inkscape:connector-curvature="0"
       inkscape:export-filename="C:\Users\sam_b\pictures/logo.png"
       inkscape:export-xdpi="300"
       inkscape:export-ydpi="300"
       sodipodi:nodetypes="cc" />
  </g>
</svg>
